<?xml version="1.0" encoding="UTF-8"?>
<svg width="351px" height="141px" viewBox="0 0 351 141" version="1.1" xmlns="http://www.w3.org/2000/svg" xmlns:xlink="http://www.w3.org/1999/xlink">
    <!-- Generator: Sketch 53.2 (72643) - https://sketchapp.com -->
    <title>CF_logo_line_white</title>
    <desc>Created with Sketch.</desc>
    <defs>
        <polygon id="path-1" points="0.06 0.496 147.935 0.496 147.935 141 0.06 141"></polygon>
    </defs>
    <g id="CF_logo_line_white" stroke="none" stroke-width="1" fill="none" fill-rule="evenodd">
        <path d="M183.916,100.964 L182.511,100.964 C182.388,100.476 182.167,99.896 181.847,99.222 C181.526,98.55 181.17,97.916 180.774,97.319 C180.366,96.694 179.921,96.148 179.438,95.678 C178.955,95.21 178.488,94.943 178.04,94.874 C177.617,94.821 177.087,94.78 176.446,94.752 C175.808,94.726 175.215,94.711 174.671,94.711 L173.487,94.711 L173.487,117.829 C173.487,118.278 173.582,118.689 173.771,119.062 C173.961,119.436 174.294,119.724 174.77,119.926 C175.015,120.023 175.526,120.152 176.309,120.315 C177.089,120.478 177.695,120.566 178.132,120.579 L178.132,122.026 L164.483,122.026 L164.483,120.579 C164.864,120.551 165.445,120.497 166.226,120.416 C167.007,120.334 167.546,120.233 167.846,120.111 C168.292,119.935 168.622,119.679 168.833,119.346 C169.043,119.014 169.147,118.57 169.147,118.012 L169.147,94.711 L167.968,94.711 C167.546,94.711 167.022,94.721 166.398,94.742 C165.773,94.762 165.177,94.807 164.605,94.874 C164.158,94.928 163.692,95.197 163.211,95.678 C162.729,96.161 162.285,96.707 161.876,97.319 C161.47,97.929 161.109,98.579 160.797,99.263 C160.484,99.95 160.269,100.517 160.146,100.964 L158.721,100.964 L158.721,93.123 L183.916,93.123 L183.916,100.964" id="Fill-1" fill="#FFFFFE"></path>
        <path d="M203.653,100.487 C203.653,98.738 203.149,97.351 202.145,96.328 C201.14,95.304 199.721,94.792 197.888,94.792 L194.425,94.792 L194.425,107.176 L197.094,107.176 C198.967,107.176 200.529,106.578 201.779,105.377 C203.028,104.177 203.653,102.547 203.653,100.487 M214.366,122.026 L206.584,122.026 C204.86,119.323 203.303,116.988 201.914,115.018 C200.522,113.049 199.013,111.02 197.386,108.928 L194.425,108.928 L194.425,118.093 C194.425,118.57 194.501,118.987 194.649,119.346 C194.799,119.706 195.118,119.982 195.606,120.171 C195.851,120.266 196.279,120.355 196.89,120.437 C197.502,120.517 198.017,120.566 198.438,120.579 L198.438,122.026 L186.217,122.026 L186.217,120.579 C186.544,120.551 187.015,120.504 187.633,120.437 C188.251,120.369 188.682,120.281 188.926,120.171 C189.334,119.996 189.63,119.737 189.812,119.398 C189.996,119.058 190.088,118.623 190.088,118.093 L190.088,97.197 C190.088,96.721 190.019,96.299 189.883,95.933 C189.748,95.568 189.428,95.289 188.926,95.098 C188.587,94.976 188.145,94.864 187.602,94.762 C187.059,94.661 186.597,94.596 186.217,94.57 L186.217,93.123 L199.558,93.123 C200.781,93.123 201.928,93.248 203.001,93.499 C204.073,93.751 205.045,94.155 205.914,94.711 C206.756,95.254 207.427,95.964 207.93,96.84 C208.432,97.715 208.683,98.772 208.683,100.007 C208.683,101.121 208.513,102.106 208.174,102.96 C207.835,103.817 207.332,104.556 206.667,105.18 C206.056,105.764 205.323,106.271 204.467,106.698 C203.612,107.125 202.668,107.49 201.636,107.788 C203.062,109.675 204.247,111.263 205.189,112.553 C206.134,113.843 207.292,115.413 208.663,117.258 C209.26,118.074 209.8,118.674 210.282,119.062 C210.764,119.449 211.243,119.764 211.718,120.008 C212.071,120.186 212.512,120.321 213.043,120.416 C213.572,120.51 214.013,120.566 214.366,120.579 L214.366,122.026" id="Fill-2" fill="#FFFFFE"></path>
        <path d="M230.806,110.211 L226.427,98.995 L222.112,110.211 L230.806,110.211 Z M242.434,122.025 L230.419,122.025 L230.419,120.579 C231.479,120.51 232.357,120.375 233.057,120.171 C233.755,119.967 234.106,119.716 234.106,119.418 C234.106,119.295 234.092,119.147 234.065,118.969 C234.037,118.793 233.996,118.637 233.943,118.501 L231.549,112.024 L221.404,112.024 C221.023,112.975 220.713,113.803 220.476,114.509 C220.238,115.215 220.023,115.868 219.832,116.464 C219.656,117.048 219.534,117.524 219.465,117.891 C219.398,118.256 219.364,118.555 219.364,118.787 C219.364,119.329 219.791,119.75 220.647,120.049 C221.502,120.349 222.466,120.525 223.539,120.579 L223.539,122.025 L212.655,122.025 L212.655,120.579 C213.008,120.551 213.449,120.474 213.979,120.344 C214.508,120.215 214.943,120.042 215.282,119.826 C215.825,119.458 216.246,119.076 216.545,118.674 C216.843,118.275 217.135,117.72 217.42,117.015 C218.873,113.388 220.477,109.316 222.229,104.793 C223.979,100.273 225.54,96.245 226.912,92.715 L228.541,92.715 L238.176,117.647 C238.379,118.175 238.61,118.604 238.868,118.928 C239.126,119.254 239.486,119.575 239.948,119.886 C240.26,120.077 240.667,120.236 241.17,120.365 C241.672,120.495 242.093,120.566 242.434,120.579 L242.434,122.025 L242.434,122.025 Z" id="Fill-3" fill="#FFFFFE"></path>
        <path d="M266.163,107.737 C266.163,105.797 265.903,104.043 265.389,102.476 C264.872,100.909 264.119,99.542 263.128,98.375 C262.19,97.262 261.04,96.387 259.676,95.75 C258.31,95.112 256.793,94.793 255.123,94.793 C254.565,94.793 253.938,94.803 253.238,94.823 C252.54,94.844 252.02,94.861 251.681,94.874 L251.681,117.078 C251.681,118.313 252.041,119.168 252.761,119.643 C253.479,120.117 254.587,120.355 256.08,120.355 C257.805,120.355 259.312,120.05 260.602,119.439 C261.892,118.829 262.937,117.981 263.738,116.895 C264.581,115.756 265.194,114.436 265.582,112.937 C265.97,111.438 266.163,109.704 266.163,107.737 M271.152,107.746 C271.152,110.204 270.69,112.337 269.767,114.143 C268.845,115.949 267.642,117.429 266.163,118.583 C264.669,119.737 262.991,120.599 261.132,121.17 C259.271,121.74 257.35,122.025 255.366,122.025 L243.392,122.025 L243.392,120.579 C243.785,120.579 244.298,120.542 244.929,120.467 C245.56,120.392 245.977,120.307 246.182,120.212 C246.589,120.036 246.885,119.775 247.066,119.428 C247.251,119.082 247.343,118.663 247.343,118.175 L247.343,97.319 C247.343,96.857 247.265,96.443 247.107,96.076 C246.951,95.71 246.643,95.418 246.182,95.2 C245.761,94.997 245.306,94.847 244.816,94.752 C244.328,94.657 243.906,94.596 243.554,94.569 L243.554,93.123 L256.183,93.123 C257.92,93.123 259.631,93.391 261.314,93.927 C262.999,94.464 264.465,95.187 265.715,96.096 C267.412,97.305 268.741,98.887 269.707,100.842 C270.671,102.798 271.152,105.099 271.152,107.746" id="Fill-4" fill="#FFFFFE"></path>
        <path d="M287.345,122.025 L274.329,122.025 L274.329,120.579 C274.696,120.552 275.226,120.511 275.918,120.457 C276.611,120.402 277.1,120.321 277.385,120.212 C277.832,120.037 278.158,119.795 278.362,119.489 C278.566,119.184 278.667,118.759 278.667,118.216 L278.667,97.278 C278.667,96.802 278.594,96.405 278.444,96.086 C278.294,95.767 277.941,95.499 277.385,95.282 C276.978,95.119 276.464,94.966 275.848,94.823 C275.229,94.681 274.724,94.596 274.329,94.569 L274.329,93.123 L287.345,93.123 L287.345,94.569 C286.923,94.583 286.421,94.633 285.837,94.721 C285.253,94.81 284.743,94.922 284.311,95.058 C283.793,95.22 283.447,95.485 283.271,95.852 C283.095,96.218 283.006,96.626 283.006,97.074 L283.006,117.992 C283.006,118.44 283.104,118.837 283.301,119.184 C283.498,119.53 283.834,119.805 284.311,120.008 C284.596,120.117 285.061,120.236 285.704,120.365 C286.351,120.495 286.896,120.566 287.345,120.579 L287.345,122.025" id="Fill-5" fill="#FFFFFE"></path>
        <path d="M320.627,94.569 C320.245,94.583 319.661,94.691 318.874,94.895 C318.087,95.098 317.522,95.309 317.185,95.526 C316.694,95.866 316.365,96.517 316.195,97.482 C316.025,98.446 315.941,99.668 315.941,101.148 L315.941,122.31 L314.17,122.31 L296.652,98.662 L296.652,113.572 C296.652,115.242 296.759,116.526 296.969,117.422 C297.18,118.318 297.502,118.957 297.937,119.337 C298.248,119.635 298.894,119.913 299.87,120.172 C300.85,120.43 301.493,120.566 301.807,120.579 L301.807,122.025 L289.951,122.025 L289.951,120.579 C290.318,120.552 290.937,120.42 291.806,120.182 C292.675,119.944 293.218,119.731 293.436,119.54 C293.909,119.16 294.235,118.579 294.412,117.798 C294.589,117.018 294.678,115.684 294.678,113.797 L294.678,99.559 C294.678,98.935 294.567,98.31 294.352,97.685 C294.135,97.061 293.843,96.578 293.476,96.239 C292.986,95.791 292.324,95.407 291.489,95.088 C290.654,94.769 289.979,94.596 289.464,94.569 L289.464,93.123 L297.721,93.123 L313.967,115.157 L313.967,101.411 C313.967,99.728 313.856,98.435 313.641,97.532 C313.423,96.629 313.11,96.028 312.702,95.73 C312.322,95.472 311.701,95.22 310.84,94.976 C309.978,94.732 309.321,94.596 308.873,94.569 L308.873,93.123 L320.627,93.123 L320.627,94.569" id="Fill-6" fill="#FFFFFE"></path>
        <path d="M350.936,110.496 C350.609,110.538 350.17,110.602 349.621,110.69 C349.071,110.779 348.626,110.904 348.287,111.067 C347.879,111.271 347.59,111.559 347.421,111.933 C347.251,112.307 347.166,112.745 347.166,113.246 L347.166,115.487 C347.166,117.117 347.176,118.216 347.197,118.787 C347.217,119.357 347.241,119.826 347.268,120.192 C345.462,121.007 343.664,121.632 341.871,122.066 C340.079,122.499 338.32,122.718 336.595,122.718 C334.748,122.718 332.97,122.371 331.259,121.679 C329.548,120.986 328.054,119.999 326.778,118.723 C325.488,117.433 324.462,115.863 323.703,114.015 C322.942,112.166 322.563,110.101 322.563,107.819 C322.563,105.618 322.925,103.576 323.652,101.694 C324.377,99.812 325.407,98.178 326.738,96.791 C328.027,95.434 329.565,94.376 331.352,93.623 C333.136,92.869 335.047,92.492 337.084,92.492 C338.713,92.492 340.132,92.688 341.341,93.081 C342.549,93.476 343.616,93.951 344.539,94.508 L345.374,93.123 L347.003,93.123 L347.188,103.226 L345.517,103.226 C345.231,102.112 344.877,101.016 344.456,99.936 C344.035,98.856 343.491,97.889 342.825,97.034 C342.159,96.178 341.347,95.495 340.388,94.987 C339.43,94.477 338.285,94.223 336.953,94.223 C335.497,94.223 334.2,94.518 333.058,95.109 C331.915,95.701 330.923,96.58 330.081,97.748 C329.251,98.876 328.613,100.284 328.164,101.969 C327.715,103.654 327.491,105.536 327.491,107.615 C327.491,109.45 327.711,111.179 328.154,112.803 C328.595,114.426 329.238,115.829 330.081,117.012 C330.924,118.221 331.979,119.171 333.242,119.866 C334.506,120.559 335.941,120.905 337.545,120.905 C338.742,120.905 339.833,120.722 340.819,120.355 C341.804,119.989 342.501,119.601 342.91,119.194 C343.018,118.488 343.076,117.775 343.082,117.056 C343.089,116.335 343.093,115.725 343.093,115.223 L343.093,113.634 C343.093,113.063 343.015,112.558 342.859,112.116 C342.703,111.675 342.38,111.352 341.891,111.149 C341.443,110.945 340.835,110.791 340.068,110.69 C339.301,110.588 338.7,110.524 338.266,110.496 L338.266,109.01 L350.936,109.01 L350.936,110.496" id="Fill-7" fill="#FFFFFE"></path>
        <path d="M188.377,68.957 C188.051,68.998 187.611,69.063 187.063,69.151 C186.513,69.24 186.067,69.365 185.729,69.528 C185.32,69.732 185.031,70.019 184.862,70.394 C184.692,70.768 184.607,71.206 184.607,71.707 L184.607,73.948 C184.607,75.577 184.617,76.676 184.639,77.248 C184.658,77.818 184.683,78.286 184.71,78.653 C182.903,79.467 181.105,80.092 179.313,80.527 C177.521,80.96 175.762,81.179 174.037,81.179 C172.189,81.179 170.412,80.831 168.701,80.14 C166.989,79.447 165.496,78.46 164.22,77.184 C162.93,75.894 161.903,74.324 161.145,72.476 C160.383,70.628 160.003,68.561 160.003,66.28 C160.003,64.078 160.366,62.036 161.092,60.155 C161.818,58.273 162.848,56.639 164.179,55.253 C165.468,53.894 167.006,52.838 168.792,52.084 C170.578,51.33 172.488,50.952 174.525,50.952 C176.154,50.952 177.573,51.149 178.782,51.543 C179.99,51.936 181.058,52.411 181.98,52.969 L182.815,51.584 L184.444,51.584 L184.629,61.686 L182.958,61.686 C182.673,60.573 182.318,59.477 181.897,58.397 C181.477,57.317 180.933,56.35 180.267,55.495 C179.601,54.639 178.788,53.956 177.829,53.448 C176.871,52.938 175.727,52.684 174.395,52.684 C172.938,52.684 171.642,52.978 170.499,53.57 C169.356,54.162 168.364,55.04 167.522,56.21 C166.691,57.338 166.054,58.744 165.605,60.43 C165.155,62.115 164.933,63.997 164.933,66.076 C164.933,67.911 165.152,69.64 165.595,71.264 C166.037,72.887 166.68,74.29 167.522,75.473 C168.364,76.682 169.418,77.632 170.684,78.327 C171.947,79.02 173.382,79.366 174.986,79.366 C176.184,79.366 177.274,79.183 178.261,78.816 C179.245,78.45 179.942,78.062 180.352,77.655 C180.46,76.949 180.518,76.236 180.523,75.517 C180.53,74.796 180.534,74.186 180.534,73.684 L180.534,72.095 C180.534,71.524 180.456,71.019 180.301,70.577 C180.145,70.136 179.821,69.813 179.332,69.61 C178.885,69.406 178.276,69.253 177.51,69.151 C176.742,69.05 176.142,68.985 175.707,68.957 L175.707,67.471 L188.377,67.471 L188.377,68.957" id="Fill-8" fill="#FFFFFE"></path>
        <path d="M213.857,71.891 L213.246,80.486 L190.658,80.486 L190.658,79.04 C190.984,79.013 191.456,78.966 192.074,78.897 C192.691,78.828 193.123,78.742 193.367,78.633 C193.774,78.456 194.07,78.198 194.253,77.859 C194.436,77.519 194.528,77.084 194.528,76.555 L194.528,55.861 C194.528,55.4 194.45,54.992 194.294,54.639 C194.137,54.286 193.829,54.001 193.367,53.784 C193.054,53.62 192.617,53.461 192.053,53.305 C191.49,53.149 191.024,53.058 190.658,53.03 L190.658,51.584 L202.858,51.584 L202.858,53.03 C202.478,53.044 201.986,53.111 201.381,53.234 C200.777,53.356 200.339,53.465 200.068,53.559 C199.606,53.723 199.291,54.001 199.121,54.394 C198.951,54.788 198.866,55.209 198.866,55.658 L198.866,75.068 C198.866,75.965 198.91,76.661 198.999,77.156 C199.086,77.652 199.294,78.036 199.62,78.307 C199.932,78.551 200.397,78.71 201.015,78.786 C201.632,78.86 202.499,78.897 203.612,78.897 C204.114,78.897 204.637,78.884 205.18,78.857 C205.723,78.828 206.24,78.775 206.728,78.694 C207.204,78.612 207.641,78.499 208.042,78.358 C208.442,78.215 208.738,78.036 208.928,77.818 C209.485,77.194 210.133,76.245 210.874,74.976 C211.613,73.707 212.126,72.679 212.411,71.891 L213.857,71.891" id="Fill-9" fill="#FFFFFE"></path>
        <path d="M236.14,75.495 C236.9,74.261 237.453,72.862 237.799,71.3 C238.146,69.739 238.319,67.994 238.319,66.066 C238.319,64.083 238.125,62.264 237.739,60.607 C237.352,58.951 236.785,57.538 236.037,56.371 C235.29,55.216 234.354,54.317 233.228,53.672 C232.101,53.027 230.811,52.704 229.357,52.704 C227.728,52.704 226.342,53.078 225.201,53.824 C224.062,54.571 223.131,55.569 222.411,56.818 C221.732,58.014 221.227,59.412 220.895,61.014 C220.562,62.617 220.396,64.301 220.396,66.066 C220.396,68.021 220.571,69.786 220.924,71.361 C221.278,72.936 221.834,74.335 222.594,75.557 C223.327,76.751 224.251,77.685 225.365,78.358 C226.479,79.03 227.81,79.366 229.357,79.366 C230.811,79.366 232.119,79.027 233.287,78.348 C234.455,77.668 235.407,76.718 236.14,75.495 M239.174,55.006 C240.451,56.337 241.449,57.942 242.168,59.823 C242.889,61.703 243.247,63.785 243.247,66.066 C243.247,68.361 242.881,70.445 242.148,72.319 C241.414,74.192 240.396,75.788 239.093,77.105 C237.83,78.409 236.364,79.414 234.694,80.119 C233.023,80.826 231.244,81.179 229.357,81.179 C227.348,81.179 225.49,80.802 223.786,80.048 C222.081,79.294 220.618,78.246 219.397,76.901 C218.175,75.583 217.214,73.986 216.516,72.105 C215.815,70.224 215.466,68.211 215.466,66.066 C215.466,63.717 215.832,61.622 216.566,59.782 C217.299,57.942 218.311,56.35 219.602,55.006 C220.876,53.675 222.361,52.657 224.051,51.951 C225.742,51.245 227.51,50.892 229.357,50.892 C231.272,50.892 233.077,51.251 234.775,51.971 C236.473,52.691 237.939,53.702 239.174,55.006" id="Fill-10" fill="#FFFFFE"></path>
        <path d="M265.267,71.891 C265.267,70.18 264.692,68.774 263.544,67.675 C262.397,66.575 260.757,66.025 258.625,66.025 C257.756,66.025 257.024,66.035 256.426,66.056 C255.828,66.076 255.38,66.093 255.081,66.106 L255.081,76.29 C255.081,77.146 255.428,77.79 256.12,78.225 C256.813,78.66 257.777,78.876 259.014,78.876 C261.036,78.876 262.584,78.286 263.657,77.105 C264.729,75.924 265.267,74.186 265.267,71.891 M262.438,62.661 C262.939,62.076 263.287,61.436 263.484,60.743 C263.682,60.049 263.779,59.226 263.779,58.274 C263.779,56.682 263.345,55.434 262.479,54.53 C261.612,53.625 260.244,53.173 258.373,53.173 C257.94,53.173 257.396,53.183 256.738,53.202 C256.08,53.224 255.529,53.241 255.081,53.254 L255.081,64.375 L257.662,64.375 C258.773,64.375 259.726,64.232 260.519,63.947 C261.311,63.661 261.95,63.232 262.438,62.661 M267.364,67.023 C268.205,67.593 268.905,68.34 269.461,69.264 C270.019,70.187 270.297,71.307 270.297,72.624 C270.297,73.969 270.004,75.137 269.421,76.126 C268.837,77.119 268.077,77.933 267.141,78.572 C266.23,79.196 265.202,79.67 264.055,79.997 C262.907,80.323 261.723,80.486 260.499,80.486 L246.813,80.486 L246.813,79.04 C247.139,79.013 247.614,78.955 248.238,78.867 C248.863,78.779 249.312,78.673 249.582,78.551 C250.003,78.361 250.302,78.107 250.479,77.787 C250.655,77.469 250.744,77.058 250.744,76.555 L250.744,55.78 C250.744,55.318 250.665,54.911 250.509,54.558 C250.354,54.204 250.044,53.919 249.582,53.702 C249.175,53.498 248.72,53.343 248.218,53.234 C247.715,53.125 247.294,53.058 246.954,53.03 L246.954,51.584 L260.296,51.584 C261.328,51.584 262.316,51.685 263.259,51.89 C264.204,52.093 265.104,52.452 265.958,52.969 C266.759,53.444 267.418,54.089 267.935,54.904 C268.45,55.719 268.708,56.71 268.708,57.878 C268.708,58.896 268.525,59.802 268.159,60.597 C267.791,61.391 267.276,62.074 266.61,62.644 C265.986,63.187 265.27,63.645 264.461,64.018 C263.654,64.392 262.781,64.681 261.844,64.884 L261.844,65.068 C262.672,65.161 263.6,65.369 264.624,65.689 C265.65,66.008 266.563,66.452 267.364,67.023" id="Fill-11" fill="#FFFFFE"></path>
        <path d="M289.466,68.673 L285.087,57.456 L280.772,68.673 L289.466,68.673 Z M301.094,80.486 L289.079,80.486 L289.079,79.04 C290.139,78.971 291.018,78.836 291.717,78.632 C292.415,78.428 292.767,78.177 292.767,77.879 C292.767,77.756 292.752,77.608 292.726,77.43 C292.697,77.254 292.656,77.099 292.604,76.962 L290.209,70.485 L280.064,70.485 C279.684,71.436 279.373,72.265 279.136,72.971 C278.898,73.677 278.684,74.328 278.492,74.925 C278.316,75.509 278.194,75.985 278.125,76.352 C278.059,76.717 278.024,77.017 278.024,77.248 C278.024,77.79 278.451,78.211 279.308,78.51 C280.162,78.81 281.126,78.986 282.199,79.04 L282.199,80.486 L271.315,80.486 L271.315,79.04 C271.668,79.012 272.109,78.935 272.64,78.805 C273.168,78.676 273.604,78.503 273.942,78.286 C274.485,77.919 274.906,77.536 275.205,77.135 C275.503,76.736 275.795,76.182 276.08,75.476 C277.533,71.85 279.137,67.777 280.889,63.255 C282.64,58.734 284.2,54.706 285.572,51.177 L287.201,51.177 L296.836,76.108 C297.039,76.636 297.271,77.065 297.528,77.39 C297.786,77.715 298.146,78.036 298.608,78.347 C298.92,78.537 299.327,78.697 299.83,78.826 C300.332,78.956 300.753,79.027 301.094,79.04 L301.094,80.486 L301.094,80.486 Z" id="Fill-12" fill="#FFFFFE"></path>
        <path d="M325.332,71.891 L324.721,80.486 L302.133,80.486 L302.133,79.04 C302.459,79.013 302.931,78.966 303.549,78.897 C304.166,78.828 304.598,78.742 304.842,78.633 C305.249,78.456 305.545,78.198 305.728,77.859 C305.91,77.519 306.003,77.084 306.003,76.555 L306.003,55.861 C306.003,55.4 305.925,54.992 305.769,54.639 C305.611,54.286 305.304,54.001 304.842,53.784 C304.528,53.62 304.092,53.461 303.527,53.305 C302.965,53.149 302.499,53.058 302.133,53.03 L302.133,51.584 L314.333,51.584 L314.333,53.03 C313.952,53.044 313.461,53.111 312.855,53.234 C312.252,53.356 311.813,53.465 311.543,53.559 C311.081,53.723 310.766,54.001 310.596,54.394 C310.426,54.788 310.341,55.209 310.341,55.658 L310.341,75.068 C310.341,75.965 310.385,76.661 310.474,77.156 C310.561,77.652 310.769,78.036 311.095,78.307 C311.406,78.551 311.871,78.71 312.489,78.786 C313.106,78.86 313.974,78.897 315.087,78.897 C315.589,78.897 316.111,78.884 316.654,78.857 C317.197,78.828 317.715,78.775 318.202,78.694 C318.679,78.612 319.115,78.499 319.517,78.358 C319.917,78.215 320.213,78.036 320.402,77.818 C320.96,77.194 321.607,76.245 322.349,74.976 C323.088,73.707 323.601,72.679 323.886,71.891 L325.332,71.891" id="Fill-13" fill="#FFFFFE"></path>
        <path d="M46.729,124.371 C42.061,124.371 37.587,123.169 33.306,120.77 C29.024,118.372 25.229,114.917 21.923,110.406 C18.651,105.894 16.042,100.389 14.095,93.885 C12.145,87.383 11.173,80.052 11.173,71.894 C11.173,63.736 12.128,56.333 14.04,49.686 C15.95,43.04 18.596,37.318 21.977,32.519 C25.32,27.769 29.269,24.097 33.827,21.505 C38.383,18.913 43.251,17.618 48.434,17.618 C52.29,17.618 55.782,18.241 58.906,19.488 C62.029,20.735 65.006,22.485 67.834,24.739 L70.095,19.848 L74.509,19.848 L75.005,56.247 L70.48,56.247 C69.894,52.698 69.012,48.851 67.836,44.701 C66.66,40.554 65.282,37.04 63.703,34.163 C61.938,30.902 59.846,28.348 57.421,26.501 C54.997,24.656 52.224,23.732 49.101,23.732 C45.538,23.732 42.221,24.764 39.154,26.828 C36.087,28.891 33.433,31.939 31.192,35.97 C29.061,39.859 27.389,44.802 26.177,50.801 C24.965,56.801 24.359,63.495 24.359,70.887 C24.359,77.415 24.993,83.401 26.26,88.849 C27.527,94.296 29.337,99.083 31.688,103.211 C34.04,107.291 36.822,110.481 40.037,112.787 C43.25,115.09 46.843,116.242 50.812,116.242 C53.787,116.242 56.524,115.63 59.021,114.407 C61.52,113.183 63.686,111.565 65.525,109.551 C67.362,107.441 68.977,105.044 70.374,102.357 C71.77,99.672 72.91,96.747 73.79,93.581 L77.929,96.171 C74.769,106.29 70.58,113.519 65.361,117.859 C60.142,122.2 53.932,124.371 46.729,124.371" id="Fill-14" fill="#FFFFFE"></path>
        <g id="Group-18">
            <mask id="mask-2" fill="white">
                <use xlink:href="#path-1"></use>
            </mask>
            <g id="Clip-16"></g>
            <path d="M135.777,45.378 L131.726,45.378 C130.97,41.625 129.395,37.609 127.001,33.333 C124.606,29.057 122.31,26.704 120.114,26.277 C118.998,26.088 117.675,25.945 116.145,25.849 C114.614,25.755 112.877,25.707 110.933,25.707 L98.078,25.707 L98.078,66.331 L106.904,66.331 C109.574,66.331 111.649,65.964 113.13,65.226 C114.61,64.491 115.873,63.362 116.92,61.841 C117.642,60.797 118.3,59.168 118.896,56.959 C119.492,54.75 119.88,52.387 120.061,49.867 L124.112,49.867 L124.112,89.636 L120.061,89.636 C119.952,87.546 119.582,85.171 118.951,82.509 C118.319,79.849 117.642,77.924 116.92,76.737 C115.837,74.979 114.475,73.778 112.832,73.137 C111.19,72.496 109.214,72.175 106.904,72.175 L98.078,72.175 L98.078,106.97 C98.078,108.535 98.312,109.935 98.78,111.169 C99.248,112.403 100.077,113.398 101.265,114.157 C101.805,114.489 102.975,114.892 104.776,115.366 C106.576,115.841 107.944,116.103 108.881,116.15 L108.881,121.208 L75.664,121.208 L75.664,116.15 C76.744,116.054 78.184,115.9 79.985,115.686 C81.785,115.472 82.955,115.199 83.496,114.867 C84.576,114.248 85.359,113.333 85.845,112.121 C86.331,110.91 86.574,109.45 86.574,107.739 L86.574,34.759 C86.574,33.19 86.376,31.8 85.98,30.589 C85.583,29.377 84.756,28.392 83.496,27.631 C82.524,27.014 81.218,26.468 79.58,25.992 C77.941,25.517 76.636,25.232 75.664,25.137 L75.664,20.076 L135.777,20.076 L135.777,45.378" id="Fill-15" fill="#FFFFFE" mask="url(#mask-2)"></path>
            <path d="M0,141 L147.935,141 L147.935,0.496 L0,0.496 L0,141 Z M1.5,139.5 L146.435,139.5 L146.435,1.996 L1.5,1.996 L1.5,139.5 Z" id="Fill-17" fill="#FFFFFE" mask="url(#mask-2)"></path>
        </g>
    </g>
</svg>